<?xml version="1.0" encoding="UTF-8"?>
<svg width="24px" height="24px" viewBox="0 0 24 24" version="1.1" xmlns="http://www.w3.org/2000/svg" xmlns:xlink="http://www.w3.org/1999/xlink">
    <title>Google</title>
    <g stroke="none" stroke-width="1" fill="none" fill-rule="evenodd">
        <path d="M21.35,11.1 C21.35,10.36 21.28,9.63 21.14,8.93 L12,8.93 L12,12.95 L16.82,12.95 C16.63,14.08 16,15.05 15.08,15.7 L15.08,18.19 L18.28,18.19 C20.35,16.31 21.35,13.9 21.35,11.1 Z" fill="#4285F4" fill-rule="nonzero"></path>
        <path d="M12,21.5 C14.58,21.5 16.8,20.61 18.44,19.07 L15.44,16.31 C14.63,16.87 13.6,17.19 12.35,17.19 C9.83,17.19 7.72,15.62 6.99,13.36 L6.71,13.42 L3.44,15.98 L3.39,16.13 C5.04,19.3 8.25,21.5 12,21.5 Z" fill="#34A853" fill-rule="nonzero"></path>
        <path d="M6.99,13.36 C6.8,12.8 6.69,12.2 6.69,11.58 C6.69,10.96 6.8,10.36 6.97,9.8 L6.96,9.6 L3.58,6.96 L3.39,7.03 C2.54,8.6 2,10.4 2,12.29 C2,14.18 2.54,15.98 3.39,17.55 L6.99,13.36 Z" fill="#FBBC05" fill-rule="nonzero"></path>
        <path d="M12,5.93 C13.62,5.93 15.06,6.46 16.21,7.5 L18.5,5.21 C16.8,3.63 14.58,2.79 12,2.79 C8.25,2.79 5.04,4.99 3.39,8.16 L6.97,12.35 C7.72,10.09 9.83,8.5 12.35,8.5 C13.6,8.5 14.63,8.82 15.44,9.38 L18.28,6.56 C16.8,5.22 14.58,4.29 12,4.29 L12,5.93 Z" fill="#EA4335" fill-rule="nonzero"></path>
    </g>
</svg>
